<svg width="24" height="24" viewBox="0 0 24 24" fill="none" xmlns="http://www.w3.org/2000/svg">
<path fill-rule="evenodd" clip-rule="evenodd" d="M14.8283 12L23.4143 3.41401C24.1963 2.63201 24.1963 1.36801 23.4143 0.586012C22.6323 -0.195988 21.3683 -0.195988 20.5863 0.586012L12.0003 9.17201L3.41426 0.586012C2.63226 -0.195988 1.36826 -0.195988 0.586256 0.586012C-0.195744 1.36801 -0.195744 2.63201 0.586256 3.41401L9.17226 12L0.586256 20.586C-0.195744 21.368 -0.195744 22.632 0.586256 23.414C0.976256 23.804 1.48826 24 2.00026 24C2.51226 24 3.02426 23.804 3.41426 23.414L12.0003 14.828L20.5863 23.414C20.9763 23.804 21.4883 24 22.0003 24C22.5123 24 23.0243 23.804 23.4143 23.414C24.1963 22.632 24.1963 21.368 23.4143 20.586L14.8283 12Z" fill="#242526"/>
</svg>
