<svg width="21" height="14" viewBox="0 0 21 14" fill="none" xmlns="http://www.w3.org/2000/svg">
<path fill-rule="evenodd" clip-rule="evenodd" d="M10.5024 8.50002C9.67537 8.50002 9.00237 7.82702 9.00237 7.00002C9.00237 6.17302 9.67537 5.50002 10.5024 5.50002C11.3294 5.50002 12.0024 6.17302 12.0024 7.00002C12.0024 7.82702 11.3294 8.50002 10.5024 8.50002ZM10.5024 3.50002C8.57237 3.50002 7.00237 5.07002 7.00237 7.00002C7.00237 8.93002 8.57237 10.5 10.5024 10.5C12.4324 10.5 14.0024 8.93002 14.0024 7.00002C14.0024 5.07002 12.4324 3.50002 10.5024 3.50002ZM10.7222 11.9976C6.41617 12.0976 3.60717 8.41461 2.67517 6.99561C3.70117 5.39061 6.28517 2.10461 10.2832 2.00261C14.5722 1.89361 17.3972 5.58561 18.3292 7.00461C17.3042 8.60961 14.7192 11.8956 10.7222 11.9976ZM20.3701 6.50262C19.7321 5.39062 16.2081 -0.183379 10.2321 0.00362058C4.70407 0.143621 1.48907 5.01362 0.635069 6.50262C0.458069 6.81062 0.458069 7.18962 0.635069 7.49762C1.26407 8.59462 4.66407 13.9996 10.5271 13.9996C10.6091 13.9996 10.6911 13.9986 10.7731 13.9966C16.3001 13.8556 19.5161 8.98662 20.3701 7.49762C20.5461 7.18962 20.5461 6.81062 20.3701 6.50262Z" fill="#F6F6F6"/>
</svg>
