<svg width="37" height="24" viewBox="0 0 37 24" fill="none" xmlns="http://www.w3.org/2000/svg">
<path fill-rule="evenodd" clip-rule="evenodd" d="M1.87195 0H34.13C35.16 0 36.002 0.842 36.002 1.872V2.128C36.002 3.158 35.16 4 34.13 4H1.87195C0.841953 4 0.00195312 3.158 0.00195312 2.128V1.872C0.00195312 0.842 0.841953 0 1.87195 0ZM4 12C4 13.106 3.104 14 2 14C0.896 14 0 13.106 0 12C0 10.894 0.896 10 2 10C3.104 10 4 10.894 4 12ZM9.87195 10H34.13C35.16 10 36.002 10.842 36.002 11.872V12.128C36.002 13.158 35.16 14 34.13 14H9.87195C8.84195 14 8.00195 13.158 8.00195 12.128V11.872C8.00195 10.842 8.84195 10 9.87195 10ZM34.13 20H1.87195C0.841953 20 0.00195312 20.842 0.00195312 21.872V22.128C0.00195312 23.158 0.841953 24 1.87195 24H34.13C35.16 24 36.002 23.158 36.002 22.128V21.872C36.002 20.842 35.16 20 34.13 20Z" fill="#F6F6F6"/>
</svg>
