<svg width="60" height="60" viewBox="0 0 60 60" fill="none" xmlns="http://www.w3.org/2000/svg">
<circle cx="30.4056" cy="29.9999" r="24.0416" fill="#46BFB2"/>
<path fill-rule="evenodd" clip-rule="evenodd" d="M22.5 40L37.3312 25.1688L38.24 35.16C38.3275 36.1325 39.1887 36.8488 40.16 36.76C41.1337 36.6712 41.8488 35.8113 41.7613 34.8388L40.5113 21.0888C40.5013 20.9813 40.4562 20.8888 40.4275 20.7875C40.405 20.705 40.3963 20.6237 40.3612 20.5438C40.2737 20.3438 40.1563 20.1588 40.0038 20.0063C40.0025 20.005 40.0013 20.0013 40 20C39.9987 19.9988 39.995 19.9975 39.9937 19.9963C39.8412 19.8438 39.6562 19.7263 39.4562 19.6388C39.3763 19.6038 39.295 19.595 39.2125 19.5725C39.1112 19.5438 39.0188 19.4988 38.9113 19.4888L25.1613 18.2388C24.6163 18.1913 24.1075 18.3925 23.75 18.75C23.4675 19.0325 23.2787 19.4113 23.24 19.84C23.1512 20.8113 23.8675 21.6725 24.84 21.76L34.8312 22.6688L20 37.5C19.31 38.19 19.31 39.31 20 40C20.69 40.69 21.81 40.69 22.5 40Z" fill="#F6F6F6"/>
</svg>
