<svg width="71" height="28" viewBox="0 0 71 28" fill="none" xmlns="http://www.w3.org/2000/svg">
<path d="M17.038 3.816H4.40196V12.024C4.95396 11.256 5.76996 10.632 6.84996 10.152C7.92996 9.648 9.09396 9.396 10.342 9.396C12.334 9.396 13.954 9.816 15.202 10.656C16.45 11.472 17.338 12.54 17.866 13.86C18.418 15.156 18.694 16.536 18.694 18C18.694 19.728 18.37 21.276 17.722 22.644C17.074 24.012 16.078 25.092 14.734 25.884C13.414 26.676 11.77 27.072 9.80196 27.072C7.28196 27.072 5.24196 26.424 3.68196 25.128C2.12196 23.832 1.17396 22.104 0.837961 19.944H4.04196C4.35396 21.312 5.01396 22.38 6.02196 23.148C7.02996 23.916 8.30196 24.3 9.83796 24.3C11.734 24.3 13.162 23.736 14.122 22.608C15.082 21.456 15.562 19.944 15.562 18.072C15.562 16.2 15.082 14.76 14.122 13.752C13.162 12.72 11.746 12.204 9.87396 12.204C8.60196 12.204 7.48596 12.516 6.52596 13.14C5.58996 13.74 4.90596 14.568 4.47396 15.624H1.37796V0.935999H17.038V3.816ZM24.6314 27.216C24.0074 27.216 23.4794 27 23.0474 26.568C22.6154 26.136 22.3994 25.608 22.3994 24.984C22.3994 24.36 22.6154 23.832 23.0474 23.4C23.4794 22.968 24.0074 22.752 24.6314 22.752C25.2314 22.752 25.7354 22.968 26.1434 23.4C26.5754 23.832 26.7914 24.36 26.7914 24.984C26.7914 25.608 26.5754 26.136 26.1434 26.568C25.7354 27 25.2314 27.216 24.6314 27.216ZM30.534 7.524C30.702 5.316 31.554 3.588 33.09 2.34C34.626 1.092 36.618 0.467998 39.066 0.467998C40.698 0.467998 42.102 0.767999 43.278 1.368C44.478 1.944 45.378 2.736 45.978 3.744C46.602 4.752 46.914 5.892 46.914 7.164C46.914 8.652 46.482 9.936 45.618 11.016C44.778 12.096 43.674 12.792 42.306 13.104V13.284C43.866 13.668 45.102 14.424 46.014 15.552C46.926 16.68 47.382 18.156 47.382 19.98C47.382 21.348 47.07 22.584 46.446 23.688C45.822 24.768 44.886 25.62 43.638 26.244C42.39 26.868 40.89 27.18 39.138 27.18C36.594 27.18 34.506 26.52 32.874 25.2C31.242 23.856 30.33 21.96 30.138 19.512H33.306C33.474 20.952 34.062 22.128 35.07 23.04C36.078 23.952 37.422 24.408 39.102 24.408C40.782 24.408 42.054 23.976 42.918 23.112C43.806 22.224 44.25 21.084 44.25 19.692C44.25 17.892 43.65 16.596 42.45 15.804C41.25 15.012 39.438 14.616 37.014 14.616H36.186V11.88H37.05C39.258 11.856 40.926 11.496 42.054 10.8C43.182 10.08 43.746 8.976 43.746 7.488C43.746 6.216 43.326 5.196 42.486 4.428C41.67 3.66 40.494 3.276 38.958 3.276C37.47 3.276 36.27 3.66 35.358 4.428C34.446 5.196 33.906 6.228 33.738 7.524H30.534ZM65.9532 27L55.6212 15.552V27H52.3452V1.908H55.6212V13.536L65.9892 1.908H70.1292L58.7532 14.472L70.2372 27H65.9532Z" fill="#2F7F77"/>
</svg>
