<?xml version="1.0" encoding="UTF-8" standalone="no"?>
<!-- Generator: Adobe Illustrator 24.1.2, SVG Export Plug-In . SVG Version: 6.00 Build 0)  -->

<svg
   xmlns:dc="http://purl.org/dc/elements/1.1/"
   xmlns:cc="http://creativecommons.org/ns#"
   xmlns:rdf="http://www.w3.org/1999/02/22-rdf-syntax-ns#"
   xmlns:svg="http://www.w3.org/2000/svg"
   xmlns="http://www.w3.org/2000/svg"
   xmlns:sodipodi="http://sodipodi.sourceforge.net/DTD/sodipodi-0.dtd"
   xmlns:inkscape="http://www.inkscape.org/namespaces/inkscape"
   version="1.1"
   id="Layer_1"
   x="0px"
   y="0px"
   viewBox="0 0 700 700"
   xml:space="preserve"
   sodipodi:docname="adobe-acrobat-reader-logo.svg"
   width="700"
   height="700"
   inkscape:version="0.92.3 (2405546, 2018-03-11)"><metadata
   id="metadata17"><rdf:RDF><cc:Work
       rdf:about=""><dc:format>image/svg+xml</dc:format><dc:type
         rdf:resource="http://purl.org/dc/dcmitype/StillImage" /><dc:title></dc:title></cc:Work></rdf:RDF></metadata><defs
   id="defs15" /><sodipodi:namedview
   pagecolor="#ffffff"
   bordercolor="#666666"
   borderopacity="1"
   objecttolerance="10"
   gridtolerance="10"
   guidetolerance="10"
   inkscape:pageopacity="0"
   inkscape:pageshadow="2"
   inkscape:window-width="1600"
   inkscape:window-height="838"
   id="namedview13"
   showgrid="false"
   inkscape:zoom="0.71315043"
   inkscape:cx="184.36372"
   inkscape:cy="360.64963"
   inkscape:window-x="-8"
   inkscape:window-y="-8"
   inkscape:window-maximized="1"
   inkscape:current-layer="Layer_1" />
<style
   type="text/css"
   id="style2">
	.st0{fill:#B30B00;}
	.st1{fill:#FFFFFF;}
</style>
<g
   id="Surfaces"
   transform="matrix(7.533181,0,0,7.533181,124.00457,130.02533)">
	<g
   id="Reader_Surface">
		<g
   id="Outline_no_shadow_copy_2">
			<path
   class="st0"
   d="M 10.6,0 H 49.4 C 55.2,0 60,4.8 60,10.6 v 37.2 c 0,5.9 -4.8,10.6 -10.6,10.6 H 10.6 C 4.8,58.5 0,53.7 0,47.9 V 10.6 C 0,4.8 4.8,0 10.6,0 Z"
   id="path4"
   inkscape:connector-curvature="0"
   style="fill:#b30b00" />
		</g>
	</g>
</g>
<g
   id="Outlined_Mnemonics_Logos"
   transform="matrix(7.533181,0,0,7.533181,124.00457,130.02533)">
	<g
   id="DC_Trefoil">
		<path
   id="_256"
   class="st1"
   d="M 48.2,33.9 C 47,32.6 44.7,32 41.4,32 c -1.8,0 -3.7,0.2 -5.5,0.5 -1.2,-1.1 -2.2,-2.4 -3.2,-3.7 -0.7,-1 -1.4,-2 -2,-3.1 1,-2.8 1.6,-5.8 1.8,-8.8 0,-2.7 -1.1,-5.6 -4.1,-5.6 -1,0 -2,0.6 -2.5,1.5 -1.3,2.2 -0.8,6.7 1.3,11.4 -0.7,2.1 -1.5,4.2 -2.4,6.5 -0.8,2 -1.7,3.9 -2.8,5.7 -3.1,1.2 -9.6,4.2 -10.2,7.5 -0.2,1 0.1,2 0.9,2.6 0.7,0.6 1.7,1 2.7,0.9 3.9,0 7.8,-5.4 10.5,-10.1 1.5,-0.5 3,-1 4.6,-1.4 1.7,-0.4 3.3,-0.8 4.8,-1.1 4.2,3.6 7.9,4.2 9.7,4.2 2.5,0 3.5,-1.1 3.8,-2 0.4,-1.1 0.2,-2.3 -0.6,-3.1 z m -2.7,1.9 c -0.1,0.7 -0.9,1.2 -1.9,1.2 -0.3,0 -0.6,0 -0.9,-0.1 -2,-0.5 -3.9,-1.5 -5.5,-2.8 1.3,-0.2 2.7,-0.3 4,-0.3 0.9,0 1.8,0.1 2.7,0.2 0.9,0.2 1.9,0.6 1.6,1.8 z M 27.6,13.7 c 0.2,-0.3 0.5,-0.5 0.9,-0.6 1,0 1.2,1.1 1.2,2.1 -0.1,2.3 -0.5,4.5 -1.2,6.7 -1.7,-4.3 -1.5,-7.2 -0.9,-8.2 z m 5.6,19.2 c -1.1,0.2 -2.2,0.5 -3.3,0.8 -0.8,0.2 -1.6,0.5 -2.5,0.7 0.4,-0.9 0.8,-1.8 1.2,-2.6 0.5,-1.1 0.9,-2.2 1.3,-3.3 0.4,0.6 0.7,1.1 1.1,1.6 0.7,1 1.5,1.9 2.2,2.8 z m -12.1,5.8 c -2.5,4 -5,6.6 -6.4,6.6 -0.2,0 -0.5,-0.1 -0.6,-0.2 -0.3,-0.2 -0.4,-0.6 -0.3,-0.9 0.2,-1.5 3.1,-3.6 7.3,-5.5 z"
   inkscape:connector-curvature="0"
   style="fill:#ffffff" />
	</g>
</g>
</svg>