<?xml version="1.0" encoding="utf-8"?>
<!-- Generator: Adobe Illustrator 24.0.1, SVG Export Plug-In . SVG Version: 6.00 Build 0)  -->
<svg version="1.1" id="Layer_1" xmlns="http://www.w3.org/2000/svg" xmlns:xlink="http://www.w3.org/1999/xlink" x="0px" y="0px"
	 viewBox="0 0 500 500" style="enable-background:new 0 0 500 500;" xml:space="preserve">
<style type="text/css">
	.st0{fill:#00005B;}
	.st1{fill:#9999FF;}
	.st2{fill-rule:evenodd;clip-rule:evenodd;fill:#9999FF;}
</style>
<g id="_4-2" transform="translate(3551.25 308)">
	<path id="_21" class="st0" d="M-3473.1-308h343.8c43.1,0,78.1,35,78.1,78.1v343.8c0,43.1-35,78.1-78.1,78.1h-343.8
		c-43.1,0-78.1-35-78.1-78.1v-343.8C-3551.3-273-3516.3-308-3473.1-308z"/>
	<path id="_41" class="st1" d="M-3387.1-85.7c10.5,36.1,17.4,60.6,20.7,73.7c3.3-13,10.2-37.6,20.7-73.7l0,0
		c12.7-42.9,19.8-67,21.2-72.1v-0.1l0-0.1c0.3-1.1,1-2,1.9-2.7c0.9-0.7,2-1,3.2-1h47.8c1.1,0,2.1,0.3,3,0.9c0.9,0.7,1.6,1.7,1.8,2.8
		l0,0.2l8.4,202.3c0.2,1.4-0.2,2.9-1.2,4c-1.1,1-2.5,1.5-3.9,1.4h-34.4c-1.3,0.1-2.6-0.4-3.6-1.2c-1-0.9-1.6-2.2-1.5-3.6
		c-1.4-69.3-2-121-1.8-155.2c-7.1,26-21.3,78-42.7,155.9l0,0.2l-0.1,0.2c-0.4,1.1-1.2,2.1-2.2,2.8c-1,0.7-2.2,1-3.4,1h-26.6
		c-1.2,0-2.4-0.3-3.4-1c-1-0.7-1.7-1.7-2.2-2.8l-0.1-0.2l0-0.2c-21.4-77.9-35.6-129.8-42.7-155.9c0.2,34.2-0.4,85.9-1.8,155.2
		c0,1.4-0.5,2.7-1.5,3.6c-1,0.8-2.3,1.3-3.6,1.2h-34.4c-1.4,0.1-2.8-0.4-3.9-1.4c-1-1.1-1.5-2.5-1.2-4l8.5-202.3l0-0.2
		c0.2-1.1,0.8-2.1,1.8-2.8c0.9-0.6,1.9-0.9,3-0.9h47.8c1.1,0,2.2,0.3,3.2,1c0.9,0.7,1.5,1.6,1.9,2.7l0,0.1v0.1
		C-3406.9-152.7-3399.9-128.7-3387.1-85.7L-3387.1-85.7z"/>
	<path id="_42" class="st2" d="M-3123.3,44.3l0.3-0.1l0.3-0.2c1.8-1.4,2.8-3.5,2.8-5.8V15.3c0-0.6-0.1-1.2-0.2-1.8
		c-0.2-0.8-0.7-1.5-1.4-2c-0.8-0.5-1.7-0.7-2.6-0.5c-0.5,0.1-1,0.3-1.5,0.6c-10.9,4.5-22.6,6.8-34.4,6.6c-14.1,0-24.3-3.7-30.9-10.7
		c-6.6-7.5-10.4-17.1-10.4-27.1h54.4c10.8,0.2,21.5-0.2,32.3-1.3c2.5-0.3,4.4-2.2,4.7-4.6c1.1-6.1,1.5-12.4,1.3-18.6
		c0.3-16.8-5.3-33.2-15.9-46.3c-10.6-13.5-26.8-20.1-48-20.1c-22.4,0-40.2,8-53.3,24.1c-12.9,16-19.3,35.7-19.3,59.2
		c0,22.6,6.1,41.6,18.4,57l0,0c12.7,15.4,32.5,22.8,58.6,22.8C-3152.8,53.1-3137.5,50.2-3123.3,44.3z M-3201.1-48.9
		c0.9-7.7,3.7-15.1,8.2-21.4c4.5-6,11.7-9.4,19.1-8.9c8.7,0,14.6,2.9,18.1,8.2c3.9,5.9,5.9,12.7,5.8,19.8c0,0.8,0,1.5,0,2.1
		c-0.7,0.1-1.5,0.1-2.5,0.1c-2.5,0.1-6,0.2-10.4,0.2H-3201.1z"/>
</g>
</svg>
