<?xml version="1.0" encoding="utf-8"?>
<!-- Generator: Adobe Illustrator 24.0.1, SVG Export Plug-In . SVG Version: 6.00 Build 0)  -->
<svg version="1.1"
	 id="Layer_1" image-rendering="optimizeQuality" text-rendering="geometricPrecision" shape-rendering="geometricPrecision"
	 xmlns="http://www.w3.org/2000/svg" xmlns:xlink="http://www.w3.org/1999/xlink" x="0px" y="0px" viewBox="0 0 2500 1518"
	 style="enable-background:new 0 0 2500 1518;" xml:space="preserve">
<style type="text/css">
	.st0{fill:#2AC64B;}
	.st1{fill:#008A5A;}
	.st2{fill:#009550;}
	.st3{fill:#00983E;}
	.st4{fill:#009A37;}
	.st5{fill:#00863F;}
	.st6{fill:#06CBF6;}
	.st7{fill:url(#SVGID_1_);}
	.st8{fill:#666565;}
	.st9{fill-rule:evenodd;clip-rule:evenodd;fill:url(#SVGID_2_);}
	.st10{fill-rule:evenodd;clip-rule:evenodd;fill:url(#SVGID_3_);}
	.st11{fill-rule:evenodd;clip-rule:evenodd;fill:url(#SVGID_4_);}
	.st12{fill-rule:evenodd;clip-rule:evenodd;fill:#97CC1A;}
	.st13{fill-rule:evenodd;clip-rule:evenodd;fill:url(#SVGID_5_);}
	.st14{fill-rule:evenodd;clip-rule:evenodd;fill:url(#SVGID_6_);}
	.st15{fill-rule:evenodd;clip-rule:evenodd;fill:url(#SVGID_7_);}
	.st16{fill-rule:evenodd;clip-rule:evenodd;fill:url(#SVGID_8_);}
	.st17{fill-rule:evenodd;clip-rule:evenodd;fill:url(#SVGID_9_);}
	.st18{fill-rule:evenodd;clip-rule:evenodd;fill:url(#SVGID_10_);}
</style>
<g>
	<path class="st0" d="M753.6,512.2c-18.6-8.4-34.6-15-47.7-19.9c-2.8-20.6-4.8-41.3-6-62c-1-17-0.4-33.9,1.7-50.4
		c11.1,1.8,26.9,4.6,46.6,8.4c-1.9,23.4-2.1,48.1,0,74.2C749.4,479.2,751.2,495.8,753.6,512.2z M936.9,620.5
		C890,586.1,846,559.4,807.7,539c-7.7-47.7-11.1-94.9-8.1-139.9c35.4,7.8,77.2,17.9,123.2,30.7C919.7,489.9,925.3,554.6,936.9,620.5
		L936.9,620.5z M1418.3,645.6c-0.4,5.2-1.1,10.5-1.6,15.7c-64.1,33.4-127.8,78.5-185.1,139.3c-18.5,19.7-35.4,39.4-50.9,59
		c-17.3-21.9-35.8-44.1-55.5-66.4c-8.8-10-17.6-19.7-26.5-29.1c-14.7-98.6-24.1-195.9-25.8-287.1
		C1186.9,517.4,1310,572.4,1418.3,645.6L1418.3,645.6z"/>
	<path class="st1" d="M767.5,292.6c-9.6,29.1-16.6,61-19.5,95.8c-19.7-3.8-35.4-6.6-46.6-8.4c1.3-10.4,3.1-20.7,5.5-30.8
		C720.9,334.1,741.1,314.3,767.5,292.6z"/>
	<path class="st2" d="M990.6,166.9c-33.7,61.8-60.7,145.2-67.6,256.4c-0.1,2.2-0.2,4.4-0.3,6.5c-46-12.8-87.8-22.9-123.2-30.7
		c0.1-1.5,0.2-2.9,0.3-4.4c4.4-58.3,21.6-111.8,47.6-159.3C887.7,210.6,935.4,186.4,990.6,166.9z"/>
	<path class="st3" d="M1418.3,645.6C1310,572.4,1186.9,517.4,1072.9,477c-2.2-108.6,6.3-208.5,28.7-291.2c0.6-2.3,1.2-4.5,1.9-6.8
		c90.4,53.4,208.2,113,320.1,139.2C1433.4,416.8,1430.4,528.8,1418.3,645.6L1418.3,645.6z"/>
	<path class="st4" d="M1802.2,430.4c-2.8,45.9-9.3,91.3-19.5,136.7c-12.9,0.5-27.7,1.3-44.2,2.8c7.3-35,12.6-70.8,15.5-107.3
		c9.8-122.7-29.8-216.3-75.7-281.5c13.5,3.8,26.2,7.6,38.1,11.2C1767.9,257.6,1807.6,341.5,1802.2,430.4z M1687.6,575.8
		c-35.9,5.1-76.5,13.2-119.3,25.4c9.8-61.6,14.1-121.8,10.6-177.9c-7.8-128-42.5-219.1-83.3-283c38.4,6.3,74.7,13.8,108.3,21.6
		c53.5,63.2,91.4,142.1,98.2,232.8C1706.5,452.5,1700.3,514.1,1687.6,575.8z"/>
	<path class="st5" d="M1423.6,318.2C1311.8,292,1194,232.4,1103.6,179c4.8-16.5,10.1-31.6,16-45.3c16.6-2.8,33.6-5.1,51.2-6.9
		c70.6-7.2,141.2-6.5,208.3-1c7.9,17.5,15.2,37.4,21.3,60C1411.3,226.1,1419,270.6,1423.6,318.2z"/>
	<path class="st6" d="M940.8,66.2c-3.7,2.3-123.8,76.2-173.2,226.4c-26.4,21.7-46.6,41.6-60.5,56.6C739.6,207.5,870,91.8,940.8,66.2
		z M1016.8,124.6c-9,12.8-17.8,26.9-26.2,42.3c-55.3,19.5-102.9,43.7-143.2,68.5c30.8-56.5,74-104.6,122.8-142.7
		C981.8,100.9,997.6,111.9,1016.8,124.6L1016.8,124.6z"/>
	
		<linearGradient id="SVGID_1_" gradientUnits="userSpaceOnUse" x1="-43401.1133" y1="25393.8691" x2="-40757.582" y2="25313.7559" gradientTransform="matrix(0.253 0 0 -0.253 11984.0664 6504.9678)">
		<stop  offset="0" style="stop-color:#0288F7"/>
		<stop  offset="1" style="stop-color:#2EE2BD"/>
	</linearGradient>
	<path class="st7" d="M1716.3,192.3c-11.9-3.7-24.6-7.4-38.1-11.2c-54.2-77.2-117.1-114.9-117.1-114.9
		C1602.9,81.2,1665.4,127.7,1716.3,192.3z M1604,161.9c-33.6-7.9-69.9-15.3-108.3-21.6C1426.9,32.2,1340.5,1.5,1336.3,0.1
		C1428.9,18.6,1531,75.7,1604,161.9z M1379.1,125.8c-67.2-5.5-137.7-6.2-208.3,1c-17.6,1.8-34.6,4.1-51.2,6.9
		C1169.2,16.7,1249.9,0,1249.9,0h2.3C1252.2,0,1329.2,15.9,1379.1,125.8z M1165.8,0.1c-4,1.4-82.2,29.1-149,124.5
		c-19.1-12.7-35-23.6-46.6-31.9C1031.2,45.1,1100.8,13.1,1165.8,0.1L1165.8,0.1z"/>
	<path class="st8" d="M1251,1518h83l30.7-133.9h-227.3l30.7,133.9H1251z"/>
</g>
<linearGradient id="SVGID_2_" gradientUnits="userSpaceOnUse" x1="-43198.8164" y1="21497.2969" x2="-43849.082" y2="23105.332" gradientTransform="matrix(0.253 0 0 -0.253 11984.0664 6504.9678)">
	<stop  offset="0" style="stop-color:#CB1918"/>
	<stop  offset="0.388" style="stop-color:#A2183D"/>
	<stop  offset="0.749" style="stop-color:#902869"/>
	<stop  offset="1" style="stop-color:#73358A"/>
</linearGradient>
<path class="st9" d="M937.7,918.4c16,33,31.2,62.5,44.3,87c22.5,42.1,43.9,77.8,65.9,110.4c6.4-22.3,14.3-45.8,24.2-70.2
	c-17.1-39.2-34.3-81.4-50.6-125.3c-35.5-95.4-67-199.1-84.6-299.9C890,586.1,846,559.4,807.7,539
	C829.6,674.6,887.2,814.3,937.7,918.4L937.7,918.4z"/>
<linearGradient id="SVGID_3_" gradientUnits="userSpaceOnUse" x1="-43527.3828" y1="21364.416" x2="-44177.6602" y2="22972.4648" gradientTransform="matrix(0.253 0 0 -0.253 11984.0664 6504.9678)">
	<stop  offset="0" style="stop-color:#CB1918"/>
	<stop  offset="0.388" style="stop-color:#A2183D"/>
	<stop  offset="0.749" style="stop-color:#902869"/>
	<stop  offset="1" style="stop-color:#73358A"/>
</linearGradient>
<path class="st10" d="M862.7,916.7c9,15.8,18.4,31.7,28.2,47.7c45.6,74.7,98.2,143.7,145,199.7c1.4-6.8,3-13.8,4.8-20.9
	c-19-26-37.4-52.5-53.3-77c-22.8-35.1-55.8-86-90.2-148.6c-58.9-107.4-121.8-249.4-143.6-405.3c-18.5-8.4-34.6-14.9-47.7-19.9
	C724.7,632.2,778.2,769.5,862.7,916.7L862.7,916.7z"/>
<linearGradient id="SVGID_4_" gradientUnits="userSpaceOnUse" x1="-42624.5977" y1="21729.498" x2="-43274.875" y2="23337.5488" gradientTransform="matrix(0.253 0 0 -0.253 11984.0664 6504.9678)">
	<stop  offset="0" style="stop-color:#CB1918"/>
	<stop  offset="0.388" style="stop-color:#A2183D"/>
	<stop  offset="0.749" style="stop-color:#902869"/>
	<stop  offset="1" style="stop-color:#73358A"/>
</linearGradient>
<path class="st11" d="M1107,816.1c5.9,35.3,12.8,71.2,20.3,106.6c0.7,3.4,1.4,6.7,2.2,10.1c14.9-24.2,32-48.7,51.3-73.3
	c-17.9-22.6-36.4-44.8-55.5-66.4c-8.8-10-17.6-19.6-26.5-29.1C1101.3,781.4,1104.1,798.8,1107,816.1L1107,816.1z"/>
<path class="st12" d="M1738.5,569.9c-21.1,102.5-58.3,197.4-97.8,278.6c8,8,15.8,16,23.3,23.9c56.3-104.7,96.4-204.9,118.7-305.3
	C1769.8,567.6,1755,568.4,1738.5,569.9z M1568.4,601.2c-7.7,48.9-18.9,98.7-32.4,148.1c23.3,21,48.8,44.5,73.8,68.7
	c31.3-74.8,60.6-158.6,77.8-242.3C1651.7,581,1611.1,589,1568.4,601.2L1568.4,601.2z"/>
<linearGradient id="SVGID_5_" gradientUnits="userSpaceOnUse" x1="-41288.2383" y1="22639.7051" x2="-42231.8906" y2="21608.9512" gradientTransform="matrix(0.253 0 0 -0.253 11984.0664 6504.9678)">
	<stop  offset="0" style="stop-color:#ADD816"/>
	<stop  offset="1" style="stop-color:#DBD704"/>
</linearGradient>
<path class="st13" d="M1231.6,800.6c-18.5,19.7-35.4,39.4-50.9,59c67.4,85.1,117.5,166.1,153.8,233.8c13.2-50.9,26.9-107.3,39.1-165
	c7.9-37.3,15.2-75,21.5-112.2c8.8-51.9,16.1-103.8,21.7-154.9C1352.6,694.7,1288.9,739.8,1231.6,800.6z M1640.7,848.4
	c-1.5,3.1-3,6.2-4.5,9.3c-44.7,90.2-91.7,162.7-121.4,208.5c-34.3,52.8-80.4,114.6-117,161.9c1.3,3.5,2.6,6.8,3.8,9.9
	c56.7-61.7,141.2-161.2,209.7-273.6c17.2-28.2,33.3-56,48.2-83.5c1.6-2.9,3.1-5.7,4.6-8.6C1656.5,864.5,1648.7,856.5,1640.7,848.4
	L1640.7,848.4z M1536,749.4l-1.8,6.4c-43.4,156.8-109.6,308.8-161.9,413.5c5.7,12.4,10.9,24,15.4,34.7
	c48.3-57.5,88.2-115.8,132.4-198.4c24.3-45.5,55.8-107.5,85.8-178.1l4-9.4C1584.8,793.9,1559.3,770.4,1536,749.4L1536,749.4z"/>
<linearGradient id="SVGID_6_" gradientUnits="userSpaceOnUse" x1="-42001.8438" y1="20659.2578" x2="-42805.1289" y2="22013.9043" gradientTransform="matrix(0.253 0 0 -0.253 11984.0664 6504.9678)">
	<stop  offset="0" style="stop-color:#E1282B"/>
	<stop  offset="0.388" style="stop-color:#E3402A"/>
	<stop  offset="0.702" style="stop-color:#E76226"/>
	<stop  offset="1" style="stop-color:#F19A0A"/>
</linearGradient>
<path class="st14" d="M1294.7,1305.7c35.3-36.6,65.6-69.1,93-101.8c-4.5-10.6-9.7-22.2-15.4-34.7
	C1335.2,1243.4,1305,1293.9,1294.7,1305.7z"/>
<linearGradient id="SVGID_7_" gradientUnits="userSpaceOnUse" x1="-41950.5117" y1="20689.6973" x2="-42753.793" y2="22044.3438" gradientTransform="matrix(0.253 0 0 -0.253 11984.0664 6504.9678)">
	<stop  offset="0" style="stop-color:#E1282B"/>
	<stop  offset="0.388" style="stop-color:#E3402A"/>
	<stop  offset="0.702" style="stop-color:#E76226"/>
	<stop  offset="1" style="stop-color:#F19A0A"/>
</linearGradient>
<path class="st15" d="M1338,1303.6c1.9-1.8,26.9-25.9,63.4-65.6c-1.2-3.1-2.5-6.4-3.8-9.9C1364.9,1270.5,1340,1301.2,1338,1303.6z"
	/>
<linearGradient id="SVGID_8_" gradientUnits="userSpaceOnUse" x1="-42087.082" y1="20608.7129" x2="-42890.3672" y2="21963.3594" gradientTransform="matrix(0.253 0 0 -0.253 11984.0664 6504.9678)">
	<stop  offset="0" style="stop-color:#E1282B"/>
	<stop  offset="0.388" style="stop-color:#E3402A"/>
	<stop  offset="0.702" style="stop-color:#E76226"/>
	<stop  offset="1" style="stop-color:#F19A0A"/>
</linearGradient>
<path class="st16" d="M1129.5,932.9c41.7,195.3,99,374.4,99,374.4h45.1c0,0,29.1-91,60.9-213.9c-36.3-67.7-86.4-148.6-153.8-233.8
	C1161.4,884.2,1144.4,908.7,1129.5,932.9z"/>
<linearGradient id="SVGID_9_" gradientUnits="userSpaceOnUse" x1="-42529.8672" y1="20346.1465" x2="-43333.1523" y2="21700.793" gradientTransform="matrix(0.253 0 0 -0.253 11984.0664 6504.9678)">
	<stop  offset="0" style="stop-color:#E1282B"/>
	<stop  offset="0.388" style="stop-color:#E3402A"/>
	<stop  offset="0.702" style="stop-color:#E76226"/>
	<stop  offset="1" style="stop-color:#F19A0A"/>
</linearGradient>
<path class="st17" d="M1047.9,1115.9c45.6,67.8,93.7,121.6,159.5,189.8c-15.3-17.5-74.7-120.7-135.3-260.1
	C1062.2,1070,1054.2,1093.6,1047.9,1115.9L1047.9,1115.9z"/>
<linearGradient id="SVGID_10_" gradientUnits="userSpaceOnUse" x1="-42678.3281" y1="20258.1074" x2="-43481.6133" y2="21612.7676" gradientTransform="matrix(0.253 0 0 -0.253 11984.0664 6504.9678)">
	<stop  offset="0" style="stop-color:#E1282B"/>
	<stop  offset="0.388" style="stop-color:#E3402A"/>
	<stop  offset="0.702" style="stop-color:#E76226"/>
	<stop  offset="1" style="stop-color:#F19A0A"/>
</linearGradient>
<path class="st18" d="M1035.9,1164.1c68.9,82.4,125.3,136.7,128.2,139.5c-3-3.8-65.2-80.2-123.4-160.4
	C1038.9,1150.3,1037.3,1157.3,1035.9,1164.1L1035.9,1164.1z"/>
</svg>
