<?xml version="1.0" encoding="utf-8"?>
<!-- Generator: Adobe Illustrator 24.0.1, SVG Export Plug-In . SVG Version: 6.00 Build 0)  -->
<svg version="1.1" id="katman_1" xmlns="http://www.w3.org/2000/svg" xmlns:xlink="http://www.w3.org/1999/xlink" x="0px" y="0px"
	 viewBox="0 0 841.9 595.3" style="enable-background:new 0 0 841.9 595.3;" xml:space="preserve">
<style type="text/css">
	.st0{fill:#FFFFFF;}
</style>
<g>
	<g>
		<path d="M499.2,84.6c-22.9-13.3-49.4-21-77.7-21.1c-28.7-0.1-55.5,7.6-78.7,21.1c-22.9-13.2-49.4-20.7-77.7-20.6v155.9
			c-0.5,172.3,139.7,311.4,311.8,311.9V219.9V63.9C548.6,63.9,522,71.4,499.2,84.6z"/>
		<g>
			<path class="st0" d="M488.1,120.3c-34.9-0.1-63.6,26.6-66.7,60.7l-0.3-0.4l-0.3,0.4c-2.9-34.1-31.5-61-66.4-61.1
				c-36.9-0.1-66.9,29.8-67,66.7c-0.1,36.9,29.7,67,66.7,67.1c13.1,0,25.4-3.8,35.7-10.3l31.1,31.3l31.3-31.1
				c10.3,6.6,22.5,10.4,35.7,10.5c36.9,0.1,67-29.8,67.1-66.7C554.9,150.5,525,120.4,488.1,120.3z M354,231.4
				c-24.6-0.1-44.5-20.1-44.5-44.7c0.1-24.6,20.1-44.5,44.7-44.5c4.6,0,9,0.7,13.2,2c-7.8,3.5-13.2,11.2-13.2,20.3
				c0,12.3,9.9,22.3,22.2,22.4c9.1,0,16.8-5.4,20.4-13.1c1.3,4.2,2,8.6,1.9,13.2C398.7,211.6,378.7,231.5,354,231.4z M487.8,231.8
				c-24.6-0.1-44.5-20.1-44.5-44.7c0-4.6,0.7-9,2-13.2c3.5,7.8,11.2,13.2,20.3,13.2c12.3,0,22.3-9.9,22.3-22.2
				c0-9.1-5.4-16.8-13.1-20.3c4.2-1.3,8.6-2,13.2-1.9c24.6,0.1,44.5,20.1,44.5,44.7C532.4,212,512.4,231.9,487.8,231.8z"/>
		</g>
	</g>
</g>
</svg>
