<svg width="147" height="27" viewBox="0 0 147 27" fill="none" xmlns="http://www.w3.org/2000/svg">
<path d="M146.676 6.25928H75.7289C75.5499 6.25928 75.4049 6.40432 75.4049 6.58324V26.3059C75.4049 26.4848 75.5499 26.6299 75.7289 26.6299H146.676C146.855 26.6299 147 26.4848 147 26.3059V6.58324C147 6.40432 146.855 6.25928 146.676 6.25928Z" fill="#46BFB2"/>
<path d="M30.1283 1.19253C30.13 1.17746 30.13 1.16224 30.1283 1.14717C30.057 1.0759 20.1762 2.96135 16.2628 3.37601C12.2732 3.83406 8.25957 4.05043 4.24387 4.02393C1.91136 3.79068 1.24401 4.26366 1.09498 4.67185C0.945963 5.08004 1.21809 5.56598 1.79474 5.96769C2.64351 6.53786 3.66723 6.09728 4.78165 5.96769C5.77296 5.83811 18.6601 3.95914 23.8175 3.22051C20.7334 5.17075 16.0749 9.46646 14.5134 18.0579C14.2931 19.574 13.3925 23.5134 11.8375 23.5458C11.3033 23.5289 10.7728 23.4506 10.2566 23.3125C8.60437 22.9432 6.56991 22.4832 3.0517 24.3816C3.60891 23.5976 4.34754 22.373 4.43825 21.4659C4.49656 20.7143 4.18556 20.0859 3.71906 20.0211C3.47285 19.9757 2.84437 20.0664 2.48153 21.6797C2.05344 23.2647 1.34702 24.7609 0.395231 26.0986L0 26.6428L0.64792 26.4031C0.745108 26.3642 10.2112 22.7488 15.5501 26.3512L15.9323 26.6039L15.8546 26.1504C15.8546 26.0078 13.6193 12.2136 24.1739 4.06929C24.7614 3.62082 25.4179 3.27071 26.1176 3.03262L30.057 1.62663L30.1283 1.19253Z" fill="white"/>
<path d="M39.2056 9.11008V9.07769L39.2963 8.99346L39.1603 9.04529C38.9512 8.96789 38.7214 8.96789 38.5123 9.04529C32.0526 11.3454 20.9084 12.6412 20.7982 12.6412H20.565L20.6298 12.8291C21.2777 14.7405 22.3921 14.5397 23.9471 14.2546C24.3942 14.1703 24.8995 14.0731 25.4568 14.0213C27.5431 13.8269 35.1755 10.9178 37.7154 9.93294C35.4088 12.3562 33.3614 16.0493 32.8949 17.7469C32.5774 18.8742 32.7588 21.6344 32.8949 23.5069C32.8949 23.7336 32.8949 23.9604 32.9337 24.1548H32.7912C32.2329 23.3733 31.5551 22.6846 30.7827 22.1138C29.3378 21.0836 23.1372 18.3883 22.9039 18.2911C20.876 17.2156 20.0401 17.4747 19.6644 17.7404C19.0164 18.2328 19.146 19.2824 18.9646 21.291C18.8345 22.6914 18.5874 24.0785 18.226 25.4377C18.0251 25.8588 17.8243 26.3124 17.902 26.3642C17.9798 26.416 18.0575 26.3642 18.5499 25.7163C18.8024 25.5033 19.076 25.3166 19.3663 25.1591C21.9373 23.9624 24.8573 23.7481 27.5755 24.5565C29.0481 24.9838 30.5977 25.0768 32.1109 24.8286C32.4787 25.2088 32.8228 25.6112 33.1411 26.0337L33.3938 26.3901L33.5104 25.9884C33.5104 25.9106 33.7112 25.2627 33.9445 24.3427C34.3987 24.2022 34.834 24.0064 35.2403 23.7595C35.5036 23.5963 35.7547 23.4144 35.9919 23.2153L34.0482 23.8632C34.5276 21.9195 35.1302 19.1852 35.0978 17.7728C35.0654 16.3603 36.439 13.5483 38.9853 9.86167L39.0242 9.80984C39.2186 9.6673 39.4129 9.3239 39.2056 9.11008ZM27.4718 23.5263C26.1233 23.0438 24.6988 22.809 23.2668 22.833C22.1133 22.8555 20.9797 23.1367 19.9494 23.6559C20.3534 22.5162 20.657 21.3433 20.8565 20.1506C20.8518 19.9614 20.898 19.7743 20.9903 19.609C21.0826 19.4438 21.2177 19.3063 21.3813 19.2112C21.7642 19.1232 22.1661 19.1809 22.5087 19.3731H22.5606C25.9283 20.1875 29.016 21.8902 31.5018 24.3038C30.1263 24.2554 28.7666 23.9931 27.4718 23.5263Z" fill="white"/>
<path d="M56.868 0.395589C56.1229 0.0457128 55.0732 1.21845 54.8594 1.54889C54.3022 2.34583 53.1683 10.3217 53.0388 11.2677C52.5528 18.3948 50.6479 23.008 50.0518 24.3038C48.3408 21.3903 46.463 18.578 44.4279 15.8809C43.0738 14.0861 42.361 11.3454 40.3914 10.9308C40.2817 10.9205 40.1714 10.9412 40.073 10.9905C39.9745 11.0397 39.8918 11.1155 39.8342 11.2094C38.3634 13.5289 39.4454 17.4488 38.2273 21.304C37.7779 22.7241 37.2368 24.1135 36.6075 25.4636L35.9596 26.6687L36.9315 25.7292C39.8406 22.8719 42.847 24.2973 46.0023 25.8135L46.2745 25.9431C47.1942 26.4319 48.224 26.6766 49.2653 26.6539C50.3067 26.6312 51.3248 26.3419 52.2224 25.8135L53.5182 24.9064L52.0345 25.4118C49.3586 26.3383 46.5012 24.0058 46.4559 23.9669C43.1645 21.7121 40.819 21.9843 39.5879 22.4054C40.2359 21.1938 40.6311 18.9455 41.0069 16.3798C41.1753 15.2394 41.4151 14.9738 41.5511 14.9155C41.6872 14.8572 41.9593 15.0321 42.1343 15.1746C42.2099 15.2491 42.2975 15.3105 42.3934 15.3561C42.8405 15.7642 47.1038 21.589 49.8963 25.4506L49.9482 25.5219H50.0259C50.2592 25.5219 52.339 25.5802 53.9653 15.9845C54.9307 10.3023 55.7795 8.10583 56.3691 6.44716C56.8549 5.30361 57.1777 4.0975 57.328 2.86416C57.5288 1.43874 57.3733 0.62884 56.868 0.395589Z" fill="white"/>
<path d="M70.9472 21.615C70.4937 21.5048 69.8198 22.1916 69.4959 22.9108C69.4959 22.9108 67.6104 25.8394 63.1398 24.8546C59.9002 24.1224 57.8009 24.6861 56.8615 25.0684L56.9586 24.8611C57.5937 22.9821 58.1087 21.0647 58.5007 19.1205C58.6538 19.5414 58.887 19.9287 59.1875 20.2608C59.5568 20.5718 66.0425 19.7101 68.6277 18.2523C69.8522 17.5655 70.5131 16.8852 70.6297 16.1725C70.6598 15.9212 70.6336 15.6664 70.5529 15.4266C70.4722 15.1867 70.3391 14.9679 70.1632 14.7859C70.0207 14.598 69.6125 14.4879 68.4657 14.1769C66.36 13.6132 62.44 12.5635 60.0427 10.2893C58.7923 9.11661 57.924 8.72138 57.3863 9.07773C56.7383 9.5248 56.9392 10.9567 56.9716 11.1316C57.1595 12.1813 57.5482 20.6237 56.071 24.8611L55.8572 26.4614C56.3058 26.0955 56.8174 25.8145 57.3668 25.6321C57.4494 25.6011 57.5338 25.5751 57.6195 25.5543C57.9953 25.4636 58.5849 25.4831 60.3343 25.82C61.9166 26.1438 63.5148 26.3838 65.1224 26.5392C65.5825 26.5845 66.0101 26.604 66.4183 26.604C71.2777 26.604 71.6016 23.5523 71.6016 23.4162C71.5368 22.6581 71.3813 21.7122 70.9472 21.615ZM58.7339 12.7709C58.5839 12.273 58.5096 11.7553 58.5136 11.2353C58.6994 11.4148 58.8587 11.6199 58.9866 11.8444C60.1011 13.6132 68.2389 15.6152 69.7356 15.9716C69.4818 16.4914 69.0656 16.9145 68.5499 17.1767C65.9582 18.7123 60.5546 18.9974 59.4791 18.5568C59.3028 18.4788 59.1142 18.4327 58.9218 18.4207C58.8223 18.4179 58.7245 18.4475 58.6432 18.505C59.3235 14.4425 58.7663 12.8486 58.7339 12.7709Z" fill="white"/>
<path d="M79.6941 12.3367H81.3009L84.4887 19.4638L87.6635 12.3367H89.2574V21.4076H87.7672V15.2329L85.0006 21.453H83.9639L81.1908 15.2329V21.453H79.6941V12.3367Z" fill="#0E2624"/>
<path d="M94.3242 21.5372C93.8362 21.5554 93.3498 21.4711 92.8964 21.2896C92.443 21.1082 92.0327 20.8337 91.692 20.4838C91.3513 20.1339 91.0878 19.7165 90.9184 19.2585C90.749 18.8004 90.6776 18.312 90.7088 17.8246C90.7088 15.5634 92.1731 14.1121 94.3047 14.1121C94.7748 14.0878 95.2448 14.1626 95.6842 14.3315C96.1235 14.5004 96.5226 14.7597 96.8554 15.0925C97.1883 15.4254 97.4475 15.8244 97.6164 16.2638C97.7853 16.7032 97.8601 17.1731 97.8359 17.6432C97.8378 17.8882 97.8204 18.133 97.7841 18.3754H92.2767C92.2987 18.8996 92.5268 19.3939 92.9115 19.7507C93.2962 20.1075 93.8063 20.2978 94.3306 20.2802C94.6821 20.3048 95.0326 20.2219 95.3358 20.0425C95.639 19.8632 95.8805 19.5958 96.0282 19.276H97.635C97.4102 19.9655 96.9635 20.5612 96.3646 20.9703C95.7657 21.3793 95.0482 21.5787 94.3242 21.5372ZM92.2832 17.1767H96.2744C96.2672 16.9233 96.2087 16.674 96.1023 16.4438C95.9959 16.2137 95.8439 16.0076 95.6555 15.8379C95.4671 15.6683 95.2462 15.5387 95.0062 15.457C94.7662 15.3753 94.5121 15.3431 94.2594 15.3625C93.76 15.3531 93.2761 15.5363 92.9082 15.8741C92.5402 16.2119 92.3164 16.6783 92.2832 17.1767Z" fill="#0E2624"/>
<path d="M102.209 14.0991C102.68 14.1013 103.144 14.2036 103.572 14.3991C104 14.5946 104.381 14.8788 104.691 15.2329V11.7471H106.194V21.4206H104.691V20.3321C104.403 20.7195 104.026 21.0314 103.592 21.2413C103.157 21.4512 102.679 21.5527 102.196 21.5372C100.298 21.5372 98.7948 20.0081 98.7948 17.7857C98.7948 15.5634 100.298 14.0991 102.209 14.0991ZM102.507 15.3949C102.204 15.3975 101.903 15.4627 101.626 15.5864C101.348 15.7102 101.099 15.8899 100.894 16.1143C100.689 16.3387 100.533 16.6029 100.435 16.8905C100.337 17.1781 100.299 17.4829 100.324 17.7857C100.298 18.092 100.335 18.4003 100.432 18.6918C100.529 18.9834 100.685 19.2521 100.889 19.4818C101.093 19.7114 101.342 19.8972 101.62 20.0278C101.898 20.1583 102.2 20.231 102.507 20.2414C102.812 20.2344 103.112 20.1653 103.389 20.0383C103.667 19.9114 103.915 19.7292 104.119 19.503C104.324 19.2768 104.48 19.0113 104.578 18.7227C104.676 18.4341 104.715 18.1285 104.691 17.8246C104.718 17.5195 104.681 17.2121 104.584 16.9215C104.487 16.631 104.331 16.3635 104.127 16.1357C103.922 15.9079 103.673 15.7245 103.394 15.5971C103.115 15.4697 102.814 15.4009 102.507 15.3949Z" fill="#0E2624"/>
<path d="M107.956 12.3108C107.961 12.1239 108.021 11.9426 108.129 11.7895C108.236 11.6365 108.386 11.5185 108.56 11.4501C108.734 11.3818 108.925 11.3662 109.108 11.4053C109.29 11.4444 109.458 11.5365 109.589 11.67C109.72 11.8036 109.808 11.9727 109.844 12.1563C109.879 12.3399 109.86 12.5298 109.788 12.7025C109.716 12.8751 109.595 13.0228 109.44 13.1271C109.285 13.2315 109.102 13.2878 108.915 13.2891C108.787 13.291 108.66 13.2668 108.542 13.218C108.423 13.1692 108.316 13.0969 108.226 13.0054C108.137 12.9139 108.066 12.8052 108.02 12.6858C107.974 12.5664 107.952 12.4388 107.956 12.3108ZM108.157 14.2157H109.647V21.4205H108.157V14.2157Z" fill="#0E2624"/>
<path d="M114.507 14.099C114.985 14.0843 115.46 14.1822 115.893 14.3848C116.326 14.5874 116.706 14.889 117.001 15.2653V14.2157H118.505V21.4205H117.001V20.345C116.704 20.7277 116.321 21.035 115.884 21.2421C115.446 21.4493 114.965 21.5503 114.481 21.5372C112.608 21.5372 111.112 20.0081 111.112 17.7857C111.112 15.5633 112.608 14.099 114.507 14.099ZM114.818 15.3949C114.515 15.3983 114.215 15.4641 113.938 15.5883C113.662 15.7125 113.413 15.8923 113.209 16.1166C113.005 16.3409 112.849 16.6049 112.751 16.892C112.654 17.1792 112.616 17.4834 112.641 17.7857C112.615 18.0914 112.652 18.3992 112.749 18.6903C112.845 18.9814 113 19.2499 113.204 19.4795C113.407 19.709 113.655 19.8949 113.933 20.0259C114.21 20.1568 114.511 20.2301 114.818 20.2413C115.123 20.2353 115.424 20.1668 115.701 20.0402C115.979 19.9135 116.227 19.7314 116.432 19.505C116.637 19.2786 116.793 19.0127 116.891 18.7237C116.988 18.4347 117.026 18.1287 117.001 17.8246C117.029 17.5192 116.993 17.2115 116.897 16.9205C116.8 16.6295 116.644 16.3617 116.439 16.1336C116.234 15.9056 115.985 15.7223 115.706 15.5952C115.427 15.468 115.124 15.3999 114.818 15.3949Z" fill="#0E2624"/>
<path d="M126.895 17.3969H124.951V21.4205H124.362V12.246H126.908C129.014 12.246 129.914 13.315 129.914 14.8377C129.914 16.3603 128.936 17.3969 126.895 17.3969ZM126.895 16.8721C128.651 16.8721 129.318 16.0752 129.318 14.8312C129.318 13.5872 128.67 12.7643 126.895 12.7643H124.951V16.8721H126.895Z" fill="#0E2624"/>
<path d="M132.072 21.4206H131.489V14.2935H132.072V15.7578C132.428 14.7276 133.303 14.1509 134.702 14.1509V14.7665H134.508C133.29 14.7665 132.072 15.369 132.072 17.2998V21.4206Z" fill="#0E2624"/>
<path d="M139.186 21.5242C137.197 21.5242 135.694 20.1377 135.694 17.8635C135.673 17.3909 135.749 16.9191 135.916 16.4765C136.083 16.0339 136.337 15.6297 136.665 15.2881C136.992 14.9465 137.385 14.6747 137.82 14.489C138.255 14.3033 138.723 14.2076 139.196 14.2076C139.669 14.2076 140.137 14.3033 140.572 14.489C141.007 14.6747 141.4 14.9465 141.727 15.2881C142.054 15.6297 142.309 16.0339 142.476 16.4765C142.643 16.9191 142.718 17.3909 142.698 17.8635C142.733 18.3405 142.667 18.8194 142.504 19.2693C142.342 19.7192 142.087 20.13 141.756 20.4751C141.425 20.8202 141.025 21.092 140.583 21.2727C140.14 21.4534 139.664 21.5391 139.186 21.5242ZM139.186 20.9994C140.676 20.9994 142.115 20.0211 142.115 17.8635C142.115 15.7059 140.689 14.7405 139.199 14.7405C137.709 14.7405 136.296 15.7189 136.296 17.8635C136.296 20.0081 137.696 20.9994 139.186 20.9994Z" fill="#0E2624"/>
</svg>
