<svg width="12" height="10" viewBox="0 0 12 10" fill="none" xmlns="http://www.w3.org/2000/svg">
<path d="M3.23851 1.22368C3.23851 1.88858 2.6622 2.42758 1.95129 2.42758C1.24037 2.42758 0.664062 1.88858 0.664062 1.22368C0.664062 0.558792 1.24037 0.0197906 1.95129 0.0197906C2.6622 0.0197906 3.23851 0.558792 3.23851 1.22368Z" fill="#F6F6F6"/>
<path d="M0.840093 3.31249H3.04048V9.98021H0.840093V3.31249Z" fill="#F6F6F6"/>
<path d="M6.5831 3.31249H4.38272V9.98021H6.5831C6.5831 9.98021 6.5831 7.88111 6.5831 6.56866C6.5831 5.78091 6.85208 4.98971 7.92534 4.98971C9.13825 4.98971 9.13095 6.02061 9.1253 6.81926C9.1179 7.86322 9.13555 8.92857 9.13555 9.98021H11.3359V6.46113C11.3173 4.21411 10.7318 3.17872 8.80549 3.17872C7.66154 3.17872 6.95244 3.69807 6.5831 4.16794V3.31249Z" fill="#F6F6F6"/>
</svg>
