<svg width="16" height="12" viewBox="0 0 16 12" fill="none" xmlns="http://www.w3.org/2000/svg">
<path d="M6.11654 11.3359C4.63696 11.3359 3.25774 10.8994 2.09686 10.1461C3.08248 10.2108 4.82188 10.0558 5.90379 9.00891C4.27625 8.93314 3.54226 7.6668 3.44652 7.12563C3.58481 7.17975 4.24433 7.24469 4.61665 7.09316C2.74445 6.61693 2.45723 4.95013 2.52106 4.44143C2.8721 4.69037 3.4678 4.77696 3.70182 4.75531C1.95727 3.48897 2.58488 1.58405 2.89337 1.17276C4.14532 2.93238 6.02161 3.92064 8.34283 3.97561C8.29906 3.78088 8.27595 3.57814 8.27595 3.36991C8.27595 1.87551 9.46659 0.664062 10.9353 0.664062C11.7027 0.664062 12.3942 0.994776 12.8796 1.52377C13.3924 1.40186 14.1641 1.11649 14.5414 0.869707C14.3513 1.5624 13.7592 2.14026 13.4011 2.35443C13.4041 2.36172 13.3982 2.34711 13.4011 2.35443C13.7157 2.30616 14.5669 2.1402 14.9031 1.90875C14.7368 2.2979 14.1091 2.94493 13.594 3.30717C13.6898 7.59524 10.4559 11.3359 6.11654 11.3359Z" fill="#F6F6F6"/>
<path d="M13.4011 2.35443C13.7592 2.14026 14.3513 1.5624 14.5414 0.869707C14.1641 1.11649 13.3924 1.40186 12.8796 1.52377C12.3942 0.994776 11.7027 0.664062 10.9353 0.664062C9.46659 0.664062 8.27595 1.87551 8.27595 3.36991C8.27595 3.57814 8.29906 3.78088 8.34283 3.97561C6.02161 3.92064 4.14532 2.93238 2.89337 1.17276C2.58488 1.58405 1.95727 3.48897 3.70182 4.75531C3.4678 4.77696 2.8721 4.69037 2.52106 4.44143C2.45723 4.95013 2.74445 6.61693 4.61665 7.09316C4.24433 7.24469 3.58481 7.17975 3.44652 7.12563C3.54226 7.6668 4.27625 8.93314 5.90379 9.00891C4.82188 10.0558 3.08248 10.2108 2.09686 10.1461C3.25774 10.8994 4.63696 11.3359 6.11654 11.3359C10.4559 11.3359 13.6898 7.59524 13.594 3.30717C14.1091 2.94493 14.7368 2.2979 14.9031 1.90875C14.5669 2.1402 13.7157 2.30616 13.4011 2.35443ZM13.4011 2.35443C13.3982 2.34711 13.4041 2.36172 13.4011 2.35443Z" stroke="#F6F6F6" stroke-width="0.711458"/>
</svg>
